# xmcd CD database file
#
# Track frame offsets:
#	150
#	15186
#	30956
#	45079
#	60928
#	77366
#	95230
#	114947
#	130825
#	149120
#	164243
#	182710
#
# Disc length: 2634 seconds
#
# Revision: 1
# Processed by: cddbd v1.5PL3 Copyright (c) Steve Scherf et al.
# Submitted via: CDex 1.51
#
DISCID=8e0a480c
DTITLE=Westlife - Turnaround
DYEAR=2003
DGENRE=Pop
TTITLE0=Mandy
TTITLE1=Hey Whatever
TTITLE2=Heal
TTITLE3=Obvious
TTITLE4=When A Woman Loves A Man
TTITLE5=On My Shoulder
TTITLE6=Turn Around
TTITLE7=I Did It For You
TTITLE8=Thank You
TTITLE9=To Be With You
TTITLE10=Home
TTITLE11=What Do They Know?
EXTD=Turn Around - Nam-gi Song YEAR: 2003
EXTT0=
EXTT1=
EXTT2=
EXTT3=
EXTT4=
EXTT5=
EXTT6=
EXTT7=
EXTT8=
EXTT9=
EXTT10=
EXTT11=
PLAYORDER=
